<?xml version="1.0" encoding="UTF-8"?>
<svg id="Layer_1" data-name="Layer 1" xmlns="http://www.w3.org/2000/svg" viewBox="0 0 435.75 467.93">
  <defs>
    <style>
      .cls-1 {
        fill: #34b0bf;
      }

      .cls-2 {
        fill: #0a2c3f;
      }

      .cls-3 {
        fill: #d46329;
      }
    </style>
  </defs>
  <g>
    <g>
      <path class="cls-3" d="M244.01,116.88c20.06,2.54,45.14,5.78,61.42-8.8,1.25-1.12.03-3.13-1.53-2.53-15.25,5.85-23.66,9.67-51.23,3.89-11.02-2.31.14-37.72,6.24-48.79,12.57-22.8,41.99-48.78,71.79-48.78,20.77,0,30.39,41.56,22.86,67.28-6.02,20.57-15.92,28.98-40.15,43.17-1.46.85-.65,2.95,1.02,2.79,7.49-.72,14.31-3.23,20.42-7.03,1.66,1.51,4.69,2.87,7.96,3.87,17.56,5.39,60.81-.62,72.29-45.57,3.21-12.58,6.04-44.39-20.31-56.58-4.42-2.05,9.12,20.97-2.76,48.98-11.02,25.96-23.8,36.44-42.62,36.39,4.67-5.6,8.61-12.03,11.76-18.83,12.36-26.67,18.75-85.4-26.32-85.4-33.25,0-37.95,14.05-54.65,14.05-43.57,0-54.84,71.34-54.84,85.84,0,8.09-70.55-1.6-70.55,77.36,0,20.41,17.91,63.52,63.52,63.52,7.66,0-28.37-23.87-28.37-71.66,0-32.72,22.76-57.12,54.03-53.17Z"/>
      <path class="cls-3" d="M260.4,216.52c-13.28-16.92-13.61-48.91-13.61-69.63,0-10.46-6.44-6.37-12.2-.6-8.8,8.8-24.62,52.79,7.98,87.89,9.13,9.83,38,26.39,61.58,7.88,3.96-3.11-24.35-.82-43.76-25.53Z"/>
      <path class="cls-3" d="M337.54,212.1c-19.52-7.27-38.44-31.53-46.39-50.67-3.89-9.36-8.53-2.01-10.39,5.66-2.83,11.71,12.27,57.55,50.96,68.6,12.49,3.57,44.73,2.63,54.86-24.58,1.7-4.57-20.54,11.61-49.05.99Z"/>
      <path class="cls-3" d="M430.22,107.86c-2.34-4.27-4.65,23.13-31.34,37.75-18.27,10-47.36,9.74-68.68,1.94-9.52-3.48-7.1,5.14-2.51,11.56,7.01,9.8,43.29,34.03,85.22,6.32,15.28-10.09,31.24-32.11,17.3-57.57Z"/>
    </g>
    <path class="cls-1" d="M334.31,76.27c5.59-12.88,5.03-25.53-1.25-28.25-6.28-2.72-19.95-1.08-25.54,11.8-5.59,12.88-.98,32.12,5.3,34.84,6.28,2.72,15.9-5.51,21.49-18.39Z"/>
    <path class="cls-2" d="M326.52,78.92c1.79-4.12,4.28-12.28,1.56-13.31-2.05-.78-7.57,1.79-11.12,12.11-1.46,4.24-1.65,8.26.4,9.03,4.16,1.57,7.37-3.71,9.16-7.83Z"/>
    <circle class="cls-3" cx="323.91" cy="31.9" r="2.26"/>
    <circle class="cls-3" cx="334.65" cy="38.28" r="2.26"/>
    <circle class="cls-3" cx="334.65" cy="29.64" r="2.26"/>
  </g>
  <g>
    <path class="cls-1" d="M28.46,367.08c-4.5,0-8.64-.55-12.42-1.64-3.78-1.09-6.97-2.75-9.59-4.97-2.62-2.22-4.45-5.02-5.51-8.39-1.06-3.38-1.23-7.35-.5-11.92.46-2.72,1.04-5.63,1.74-8.74.7-3.11,1.37-6.09,2.04-8.94,1.59-5.96,3.97-10.94,7.15-14.95,3.18-4.01,7.17-7,11.97-8.99,4.8-1.99,10.41-2.98,16.84-2.98,4.11,0,8.05.51,11.82,1.54,3.78,1.03,7.07,2.57,9.88,4.62,2.81,2.05,4.88,4.62,6.21,7.7,1.32,3.08,1.59,6.71.79,10.88-.13.6-.45,1.09-.94,1.49-.5.4-1.04.6-1.64.6h-16.89c-.93,0-1.61-.2-2.04-.6-.43-.4-.71-1.09-.84-2.09-.07-2.78-.84-4.68-2.33-5.71-1.49-1.03-3.43-1.54-5.81-1.54-2.92,0-5.41.78-7.5,2.33-2.09,1.56-3.59,4.29-4.52,8.2-1.39,5.43-2.58,10.99-3.58,16.69-.73,3.91-.41,6.64.94,8.19,1.36,1.56,3.49,2.33,6.41,2.33,2.38,0,4.55-.53,6.51-1.59,1.95-1.06,3.59-2.95,4.92-5.66.53-1.06,1.08-1.77,1.64-2.14.56-.36,1.34-.55,2.33-.55h16.89c.6,0,1.08.2,1.44.6.36.4.48.89.35,1.49-1.06,4.11-2.63,7.7-4.72,10.78s-4.69,5.66-7.8,7.75c-3.11,2.09-6.62,3.64-10.53,4.67-3.91,1.03-8.15,1.54-12.71,1.54Z"/>
    <path class="cls-1" d="M87.17,367.08c-3.05,0-5.78-.46-8.2-1.39-2.42-.93-4.4-2.35-5.96-4.27-1.56-1.92-2.6-4.34-3.13-7.25-.53-2.91-.46-6.32.2-10.23.26-1.46.51-2.71.75-3.77.23-1.06.51-2.28.84-3.68.93-3.71,2.19-7,3.77-9.88,1.59-2.88,3.48-5.28,5.66-7.2,2.19-1.92,4.65-3.39,7.4-4.42,2.75-1.03,5.74-1.54,8.99-1.54,3.91,0,6.9.51,8.99,1.54,2.09,1.03,3.72,2.33,4.92,3.92l.5-1.89c.13-.73.5-1.34,1.09-1.84s1.22-.75,1.89-.75h14.01c.73,0,1.29.25,1.69.75.4.5.53,1.11.4,1.84l-9.83,46.49c-.13.73-.5,1.34-1.09,1.84-.6.5-1.26.75-1.99.75h-14.01c-.73,0-1.31-.25-1.74-.75-.43-.5-.58-1.11-.45-1.84l.6-2.78c-1.99,1.92-4.14,3.46-6.46,4.62-2.32,1.16-5.26,1.74-8.84,1.74ZM96.11,351.58c1.72,0,3.16-.36,4.32-1.09,1.16-.73,2.1-1.69,2.83-2.88.73-1.19,1.29-2.52,1.69-3.97.4-1.46.71-2.71.94-3.78.23-1.06.45-2.28.65-3.68.2-1.39.18-2.62-.05-3.68-.23-1.06-.78-1.92-1.64-2.58-.86-.66-2.09-.99-3.68-.99s-3.05.35-4.17,1.04c-1.13.7-2.04,1.66-2.73,2.88-.69,1.23-1.28,2.63-1.74,4.22-.27.99-.53,2.05-.79,3.18-.27,1.13-.46,2.19-.6,3.18-.2,1.59-.23,3-.1,4.22.13,1.23.6,2.19,1.39,2.88.79.69,2.02,1.04,3.68,1.04Z"/>
    <path class="cls-1" d="M154.81,367.08c-4.5,0-8.25-.48-11.23-1.44-2.98-.96-5.31-2.17-7-3.63-1.69-1.46-2.85-2.96-3.48-4.52-.63-1.56-.84-2.93-.65-4.12.13-.73.5-1.34,1.09-1.84s1.19-.75,1.79-.75h14.3c.13,0,.25.02.35.05.1.03.21.12.35.25.79.27,1.52.7,2.19,1.29.66.6,1.42,1.13,2.28,1.59.86.46,1.92.7,3.18.7,1.19,0,2.28-.25,3.28-.75.99-.5,1.59-1.21,1.79-2.14.2-.8.11-1.49-.25-2.09-.36-.6-1.31-1.17-2.83-1.74-1.52-.56-3.94-1.18-7.25-1.84-3.11-.66-5.86-1.64-8.24-2.93-2.38-1.29-4.14-3.03-5.27-5.22-1.13-2.19-1.33-4.87-.6-8.05.53-2.71,1.95-5.33,4.27-7.85,2.32-2.52,5.43-4.58,9.34-6.21,3.91-1.62,8.44-2.43,13.61-2.43,3.91,0,7.27.46,10.08,1.39,2.81.93,5.12,2.09,6.9,3.48,1.79,1.39,3.06,2.88,3.82,4.47.76,1.59,1.01,3.01.75,4.27-.07.73-.36,1.34-.89,1.84-.53.5-1.09.75-1.69.75h-13.11c-.2,0-.4-.02-.6-.05-.2-.03-.36-.12-.5-.25-.86-.2-1.62-.58-2.28-1.14-.66-.56-1.38-1.09-2.14-1.59-.76-.5-1.81-.75-3.13-.75-1.13,0-2.09.27-2.88.79-.79.53-1.29,1.23-1.49,2.09-.2.73-.12,1.39.25,1.99.36.6,1.31,1.16,2.83,1.69,1.52.53,4.01,1.09,7.45,1.69,4.5.73,7.96,1.94,10.38,3.63,2.42,1.69,3.99,3.66,4.72,5.91.73,2.25.86,4.5.4,6.75-.73,3.38-2.37,6.33-4.92,8.84-2.55,2.52-5.94,4.45-10.18,5.81-4.24,1.36-9.17,2.04-14.8,2.04Z"/>
    <path class="cls-1" d="M213.22,367.08c-4.57,0-8.74-.88-12.52-2.63-3.77-1.75-6.61-4.34-8.49-7.75-1.89-3.41-2.47-7.53-1.74-12.37.2-1.06.46-2.38.79-3.97.33-1.59.63-2.95.89-4.07,1.92-7.28,5.55-12.91,10.88-16.89,5.33-3.97,11.94-5.96,19.82-5.96,4.7,0,8.67.7,11.92,2.09,3.24,1.39,5.81,3.11,7.7,5.17,1.89,2.05,3.21,4.12,3.97,6.21.76,2.09,1.04,3.82.84,5.22-.07.73-.41,1.34-1.04,1.84-.63.5-1.28.75-1.94.75h-16.09c-.73,0-1.28-.16-1.64-.5-.36-.33-.61-.83-.74-1.49-.2-1.46-.65-2.55-1.34-3.28-.69-.73-1.81-1.09-3.33-1.09-2.12,0-3.82.71-5.12,2.14-1.29,1.42-2.3,3.53-3.03,6.31-.33,1.39-.63,2.68-.89,3.87-.27,1.19-.46,2.25-.6,3.18-.46,2.85-.38,4.95.25,6.31.63,1.36,1.97,2.04,4.02,2.04,1.65,0,2.98-.35,3.97-1.04s1.92-1.77,2.78-3.23c.4-.66.84-1.18,1.34-1.54.5-.36,1.11-.55,1.84-.55h16.09c.73,0,1.31.27,1.74.8.43.53.55,1.16.35,1.89-.4,1.19-1.23,2.8-2.48,4.82-1.26,2.02-3.06,4.09-5.41,6.21-2.35,2.12-5.4,3.91-9.14,5.36-3.74,1.46-8.29,2.19-13.66,2.19Z"/>
    <path class="cls-1" d="M267.96,367.08c-3.05,0-5.78-.46-8.2-1.39-2.42-.93-4.4-2.35-5.96-4.27-1.56-1.92-2.6-4.34-3.13-7.25-.53-2.91-.46-6.32.2-10.23.26-1.46.51-2.71.75-3.77.23-1.06.51-2.28.84-3.68.93-3.71,2.19-7,3.77-9.88,1.59-2.88,3.48-5.28,5.66-7.2,2.19-1.92,4.65-3.39,7.4-4.42,2.75-1.03,5.74-1.54,8.99-1.54,3.91,0,6.9.51,8.99,1.54,2.09,1.03,3.72,2.33,4.92,3.92l.5-1.89c.13-.73.5-1.34,1.09-1.84s1.22-.75,1.89-.75h14.01c.73,0,1.29.25,1.69.75.4.5.53,1.11.4,1.84l-9.83,46.49c-.13.73-.5,1.34-1.09,1.84-.6.5-1.26.75-1.99.75h-14.01c-.73,0-1.31-.25-1.74-.75-.43-.5-.58-1.11-.45-1.84l.6-2.78c-1.99,1.92-4.14,3.46-6.46,4.62-2.32,1.16-5.26,1.74-8.84,1.74ZM276.9,351.58c1.72,0,3.16-.36,4.32-1.09,1.16-.73,2.1-1.69,2.83-2.88.73-1.19,1.29-2.52,1.69-3.97.4-1.46.71-2.71.94-3.78.23-1.06.45-2.28.65-3.68.2-1.39.18-2.62-.05-3.68-.23-1.06-.78-1.92-1.64-2.58-.86-.66-2.09-.99-3.68-.99s-3.05.35-4.17,1.04c-1.13.7-2.04,1.66-2.73,2.88-.69,1.23-1.28,2.63-1.74,4.22-.27.99-.53,2.05-.79,3.18-.27,1.13-.46,2.19-.6,3.18-.2,1.59-.23,3-.1,4.22.13,1.23.6,2.19,1.39,2.88.79.69,2.02,1.04,3.68,1.04Z"/>
    <path class="cls-1" d="M331.83,367.08c-3.05,0-5.78-.46-8.2-1.39-2.42-.93-4.39-2.35-5.91-4.27-1.52-1.92-2.57-4.34-3.13-7.25-.56-2.91-.51-6.32.15-10.23.26-1.46.51-2.71.75-3.77.23-1.06.51-2.28.84-3.68.93-3.71,2.17-7,3.72-9.88,1.56-2.88,3.43-5.28,5.61-7.2,2.19-1.92,4.6-3.39,7.25-4.42,2.65-1.03,5.5-1.54,8.54-1.54s5.78.48,8.2,1.44c2.42.96,4.25,2.23,5.51,3.82l4.27-20.56c.13-.73.5-1.34,1.09-1.84.6-.5,1.26-.75,1.99-.75h15.3c.66,0,1.21.25,1.64.75.43.5.58,1.11.45,1.84l-13.91,65.36c-.13.73-.51,1.34-1.14,1.84-.63.5-1.28.75-1.94.75h-14.11c-.73,0-1.29-.25-1.69-.75-.4-.5-.53-1.11-.4-1.84l.6-2.78c-1.99,1.92-4.16,3.46-6.51,4.62-2.35,1.16-5.35,1.74-8.99,1.74ZM340.87,351.58c1.72,0,3.16-.36,4.32-1.09,1.16-.73,2.12-1.69,2.88-2.88.76-1.19,1.34-2.52,1.74-3.97.33-1.46.61-2.71.84-3.78.23-1.06.45-2.28.65-3.68.26-1.39.26-2.62,0-3.68-.27-1.06-.83-1.92-1.69-2.58-.86-.66-2.09-.99-3.68-.99s-3.06.35-4.22,1.04c-1.16.7-2.09,1.66-2.78,2.88-.69,1.23-1.28,2.63-1.74,4.22-.27.99-.53,2.05-.79,3.18-.27,1.13-.46,2.19-.6,3.18-.2,1.59-.23,3-.1,4.22.13,1.23.61,2.19,1.44,2.88.83.69,2.07,1.04,3.72,1.04Z"/>
    <path class="cls-1" d="M402.36,367.08c-5.5,0-10.08-.94-13.76-2.83s-6.21-4.75-7.6-8.59c-1.39-3.84-1.49-8.71-.3-14.6.07-.26.13-.61.2-1.04.07-.43.13-.75.2-.94,1.32-5.5,3.51-10.15,6.56-13.96,3.05-3.81,6.79-6.71,11.22-8.69,4.44-1.99,9.37-2.98,14.8-2.98,6.09,0,10.88,1.21,14.35,3.63,3.48,2.42,5.76,5.63,6.85,9.64,1.09,4.01,1.14,8.49.15,13.46l-.5,2.78c-.13.66-.51,1.26-1.14,1.79-.63.53-1.31.79-2.04.79h-30.7c-.07.27-.1.46-.1.6-.33,1.59-.41,3-.25,4.22.16,1.23.63,2.19,1.39,2.88.76.7,1.8,1.04,3.13,1.04.86,0,1.62-.13,2.28-.4.66-.26,1.26-.61,1.79-1.04.53-.43,1.03-.84,1.49-1.24.73-.6,1.31-.98,1.74-1.14.43-.16,1.01-.25,1.74-.25h15.6c.66,0,1.16.2,1.49.6.33.4.4.89.2,1.49-.33,1.19-1.19,2.63-2.58,4.32-1.39,1.69-3.33,3.33-5.81,4.92-2.48,1.59-5.45,2.92-8.89,3.97-3.44,1.06-7.29,1.59-11.52,1.59ZM403.05,334.39h12.42v-.2c.4-1.79.48-3.31.25-4.57-.23-1.26-.75-2.2-1.54-2.83-.79-.63-1.85-.94-3.18-.94s-2.52.31-3.58.94c-1.06.63-1.94,1.57-2.63,2.83-.7,1.26-1.28,2.78-1.74,4.57v.2Z"/>
  </g>
  <g>
    <path class="cls-2" d="M92.8,467.93c-7.09,0-12.93-.99-17.53-2.96-4.6-1.98-7.89-4.58-9.86-7.82-1.98-3.24-2.66-6.69-2.04-10.37.14-.61.44-1.12.92-1.53.48-.41,1.02-.61,1.64-.61h16.25c1.02,0,1.77.15,2.25.46.48.31.95.73,1.43,1.28.41.75.97,1.45,1.69,2.09.72.65,1.67,1.16,2.86,1.53,1.19.38,2.61.56,4.24.56,3.13,0,5.67-.42,7.61-1.28,1.94-.85,3.08-2.03,3.42-3.53.27-1.16.02-2.11-.77-2.86-.78-.75-2.21-1.43-4.29-2.04-2.08-.61-4.89-1.26-8.43-1.94-5.11-.88-9.35-2.32-12.72-4.29-3.37-1.98-5.74-4.55-7.1-7.72-1.36-3.17-1.57-6.93-.61-11.29,1.36-6.61,4.87-11.8,10.53-15.58,5.65-3.78,12.98-5.67,21.97-5.67,4.5,0,8.55.65,12.16,1.94,3.61,1.3,6.66,2.98,9.15,5.06,2.49,2.08,4.33,4.31,5.52,6.69,1.19,2.39,1.58,4.67,1.18,6.85-.07.61-.36,1.14-.87,1.58-.51.44-1.04.66-1.58.66h-17.07c-.89,0-1.58-.14-2.1-.41-.51-.27-.97-.71-1.38-1.33-.14-.95-.8-1.8-1.99-2.55-1.19-.75-2.78-1.12-4.75-1.12-2.32,0-4.21.39-5.67,1.18-1.47.78-2.37,1.93-2.71,3.42-.2,1.02,0,1.91.61,2.66.61.75,1.8,1.41,3.58,1.99,1.77.58,4.29,1.21,7.56,1.89,6.34.95,11.29,2.42,14.87,4.39,3.58,1.98,5.96,4.51,7.15,7.61,1.19,3.1,1.34,6.8.46,11.09-1.57,7.22-5.33,12.69-11.29,16.4-5.96,3.71-14.05,5.57-24.27,5.57Z"/>
    <path class="cls-2" d="M149.93,466.91c-.68,0-1.24-.26-1.69-.77-.44-.51-.6-1.14-.46-1.89l10.73-49.87h-17.58c-.75,0-1.35-.26-1.79-.77-.44-.51-.6-1.14-.46-1.89l2.96-13.69c.14-.75.53-1.38,1.18-1.89.65-.51,1.31-.77,1.99-.77h57.43c.75,0,1.34.26,1.79.77.44.51.6,1.14.46,1.89l-2.96,13.69c-.14.75-.51,1.38-1.12,1.89-.61.51-1.3.77-2.04.77h-17.58l-10.73,49.87c-.14.75-.51,1.38-1.12,1.89-.61.51-1.3.77-2.04.77h-16.96Z"/>
    <path class="cls-2" d="M200.72,466.91c-.75,0-1.35-.26-1.79-.77-.44-.51-.6-1.14-.46-1.89l14.1-66.22c.14-.75.53-1.38,1.18-1.89.65-.51,1.34-.77,2.09-.77h50.07c.75,0,1.33.26,1.74.77.41.51.54,1.14.41,1.89l-2.55,12.06c-.14.68-.53,1.3-1.17,1.84-.65.55-1.35.82-2.1.82h-31.58l-2.25,10.12h29.33c.75,0,1.34.26,1.79.77.44.51.6,1.14.46,1.89l-2.45,11.04c-.14.75-.53,1.38-1.18,1.89-.65.51-1.35.77-2.1.77h-29.33l-2.15,10.32h32.4c.75,0,1.33.27,1.74.82.41.55.54,1.19.41,1.94l-2.55,11.96c-.14.75-.51,1.38-1.12,1.89-.61.51-1.3.77-2.04.77h-50.89Z"/>
    <path class="cls-2" d="M261.01,466.91c-.75,0-1.29-.32-1.64-.97-.34-.65-.31-1.31.1-1.99l37.2-65.4c.41-.75,1.02-1.46,1.84-2.15.82-.68,1.87-1.02,3.17-1.02h19.21c1.29,0,2.21.34,2.76,1.02.54.68.85,1.4.92,2.15l9.5,65.4c.14.89-.09,1.6-.66,2.15-.58.55-1.24.82-1.99.82h-15.33c-1.16,0-1.96-.27-2.4-.82-.44-.54-.73-1.09-.87-1.64l-1.43-8.48h-24.53l-5.11,8.58c-.27.55-.73,1.07-1.38,1.58-.65.51-1.55.77-2.71.77h-16.66ZM295.14,438.7h15.23l-2.66-22.99-12.57,22.99Z"/>
    <path class="cls-2" d="M343.07,466.91c-.75,0-1.35-.26-1.79-.77-.44-.51-.6-1.14-.46-1.89l14.1-66.22c.14-.75.53-1.38,1.18-1.89.65-.51,1.34-.77,2.09-.77h13.59c1.23,0,2.1.34,2.61,1.02.51.68.8,1.16.87,1.43l10.42,28.41,22.38-28.41c.27-.27.78-.75,1.53-1.43.75-.68,1.74-1.02,2.96-1.02h13.59c.75,0,1.33.26,1.74.77.41.51.54,1.14.41,1.89l-14.1,66.22c-.14.75-.51,1.38-1.12,1.89-.61.51-1.3.77-2.04.77h-15.43c-.75,0-1.33-.26-1.74-.77-.41-.51-.55-1.14-.41-1.89l6.95-32.8-12.37,15.84c-.48.55-1.06,1.09-1.74,1.63-.68.55-1.5.82-2.45.82h-6.23c-.95,0-1.65-.27-2.09-.82-.44-.54-.77-1.09-.97-1.63l-5.93-16.35-7.05,33.31c-.14.75-.51,1.38-1.12,1.89-.61.51-1.3.77-2.04.77h-15.33Z"/>
  </g>
</svg>