<svg xmlns="http://www.w3.org/2000/svg" viewBox="0 0 1024 1024"><defs><style>.a{fill:#d46329;}.b{fill:#34b0bf;}.c{fill:#0a2c3f;}</style></defs><title>Whatcom_STEM_mark_primary</title><path class="a" d="M334.1,481.4c69.7,8.8,156.9,20.1,213.4-30.6,4.4-3.8.2-10.8-5.3-8.8-53,20.4-82.2,33.7-178,13.5-38.3-8,.5-131.1,21.7-169.5,43.6-79.3,145.9-169.6,249.5-169.6,72.2,0,105.6,144.5,79.4,233.9-20.9,71.4-55.3,100.7-139.5,150-5.1,2.9-2.3,10.2,3.6,9.7a161.5,161.5,0,0,0,70.9-24.5c5.8,5.3,16.3,10,27.7,13.5,61,18.7,211.3-2.2,251.2-158.4,11.2-43.7,21-154.3-70.6-196.6-15.3-7.1,31.8,72.9-9.6,170.2-38.3,90.2-82.7,126.7-148.1,126.5a293.4,293.4,0,0,0,40.9-65.5c43-92.7,65.2-296.8-91.5-296.8-115.5,0-131.9,48.9-189.9,48.9-151.4,0-190.6,247.9-190.6,298.3,0,28.1-245.2-5.6-245.2,268.9,0,70.9,62.3,220.8,220.8,220.8,26.6,0-98.6-83-98.6-249.1C146.3,552.5,225.4,467.7,334.1,481.4Z"/><path class="a" d="M391.1,827.7c-46.2-58.8-47.3-170-47.3-242,0-36.3-22.4-22.1-42.4-2.1-30.6,30.6-85.6,183.5,27.7,305.5,31.8,34.1,132.1,91.7,214,27.4C556.9,905.7,458.5,913.6,391.1,827.7Z"/><path class="a" d="M659.2,812.3c-67.9-25.2-133.6-109.5-161.3-176.1-13.5-32.5-29.6-7-36.1,19.7-9.8,40.7,42.7,200,177.2,238.4,43.4,12.4,155.4,9.2,190.6-85.4C835.5,793,758.2,849.3,659.2,812.3Z"/><path class="a" d="M981.3,450.1c-8.2-14.9-16.2,80.4-108.9,131.1C808.9,616,707.8,615.1,633.7,588c-33.1-12.1-24.7,17.9-8.8,40.2,24.4,34,150.5,118.3,296.2,22C974.2,615.1,1029.7,538.6,981.3,450.1Z"/><path class="b" d="M653.9,320.5c19.4-44.8,17.4-88.8-4.4-98.2s-69.3-3.8-88.7,41-3.4,111.6,18.4,121.1S634.4,365.2,653.9,320.5Z"/><path class="c" d="M626.8,329.7c6.2-14.3,14.8-42.7,5.4-46.3-7.1-2.7-26.3,6.2-38.7,42.1-5,14.8-5.7,28.7,1.4,31.4C609.4,362.4,620.6,344,626.8,329.7Z"/><circle class="a" cx="617.7" cy="166.3" r="7.8"/><circle class="a" cx="655" cy="188.4" r="7.8"/><circle class="a" cx="655" cy="158.4" r="7.8"/></svg>