<?xml version="1.0" encoding="UTF-8"?>
<svg id="Layer_1" data-name="Layer 1" xmlns="http://www.w3.org/2000/svg" viewBox="0 0 432 432">
  <defs>
    <style>
      .cls-1 {
        fill: #34b0bf;
      }

      .cls-2 {
        fill: #0a2c3f;
      }

      .cls-3 {
        fill: #d46329;
      }
    </style>
  </defs>
  <g>
    <path class="cls-3" d="M139.57,202.79c30.11,3.81,67.75,8.68,92.19-13.21,1.87-1.67.05-4.7-2.29-3.8-22.89,8.79-35.51,14.52-76.9,5.83-16.54-3.47.21-56.62,9.37-73.24,18.86-34.23,63.03-73.22,107.76-73.22,31.17,0,45.62,62.38,34.31,100.98-9.04,30.87-23.89,43.49-60.26,64.79-2.19,1.28-.98,4.43,1.54,4.19,11.24-1.08,21.48-4.84,30.65-10.55,2.5,2.27,7.04,4.3,11.95,5.81,26.36,8.08,91.27-.93,108.51-68.4,4.82-18.89,9.06-66.63-30.49-84.93-6.64-3.07,13.69,31.48-4.15,73.52-16.54,38.96-35.72,54.7-63.97,54.62,7.01-8.41,12.92-18.05,17.66-28.26,18.56-40.03,28.14-128.18-39.51-128.18-49.91,0-56.96,21.09-82.02,21.09-65.4,0-82.31,107.08-82.31,128.85,0,12.15-105.89-2.41-105.89,116.12,0,30.63,26.89,95.35,95.34,95.35,11.49,0-42.58-35.82-42.58-107.56,0-49.11,34.17-85.73,81.1-79.8Z"/>
    <path class="cls-3" d="M164.18,352.36c-19.94-25.39-20.42-73.42-20.42-104.51,0-15.7-9.66-9.55-18.31-.9-13.21,13.21-36.96,79.24,11.98,131.92,13.7,14.75,57.04,39.61,92.43,11.82,5.94-4.67-36.55-1.23-65.68-38.32Z"/>
    <path class="cls-3" d="M279.96,345.71c-29.29-10.92-57.7-47.33-69.64-76.06-5.83-14.04-12.81-3.02-15.59,8.5-4.25,17.58,18.42,86.38,76.49,102.97,18.75,5.35,67.13,3.94,82.35-36.89,2.55-6.85-30.83,17.43-73.62,1.48Z"/>
    <path class="cls-3" d="M419.07,189.25c-3.51-6.42-6.98,34.72-47.03,56.65-27.42,15.02-71.09,14.61-103.08,2.92-14.28-5.22-10.66,7.71-3.77,17.35,10.52,14.71,64.97,51.08,127.92,9.49,22.93-15.15,46.89-48.2,25.97-86.42Z"/>
  </g>
  <path class="cls-1" d="M277.67,133.28c8.39-19.33,7.55-38.32-1.88-42.41-9.42-4.09-29.94-1.62-38.33,17.71-8.39,19.33-1.47,48.21,7.96,52.3,9.42,4.09,23.87-8.27,32.25-27.6Z"/>
  <path class="cls-2" d="M265.97,137.27c2.68-6.18,6.42-18.43,2.34-19.98-3.07-1.17-11.36,2.68-16.69,18.18-2.19,6.37-2.47,12.39.6,13.56,6.24,2.36,11.06-5.58,13.75-11.76Z"/>
  <circle class="cls-3" cx="262.05" cy="66.68" r="3.39"/>
  <circle class="cls-3" cx="278.18" cy="76.26" r="3.39"/>
  <circle class="cls-3" cx="278.18" cy="63.3" r="3.39"/>
</svg>