<?xml version="1.0" encoding="UTF-8" standalone="no"?>
<svg
   viewBox="0 0 422.74901 141.04921"
   version="1.1"
   id="svg2325"
   sodipodi:docname="Cascade_STEAM_horizontal_logo_primary_1.svg"
   inkscape:version="1.2.2 (b0a8486541, 2022-12-01)"
   width="422.74899"
   height="141.04922"
   xmlns:inkscape="http://www.inkscape.org/namespaces/inkscape"
   xmlns:sodipodi="http://sodipodi.sourceforge.net/DTD/sodipodi-0.dtd"
   xmlns="http://www.w3.org/2000/svg"
   xmlns:svg="http://www.w3.org/2000/svg"
   xmlns:rdf="http://www.w3.org/1999/02/22-rdf-syntax-ns#"
   xmlns:cc="http://creativecommons.org/ns#"
   xmlns:dc="http://purl.org/dc/elements/1.1/">
  <title
     id="title126">Cascade STEAM horizontal logo primary</title>
  <sodipodi:namedview
     id="namedview2327"
     pagecolor="#ffffff"
     bordercolor="#111111"
     borderopacity="1"
     inkscape:showpageshadow="false"
     inkscape:pageopacity="0"
     inkscape:pagecheckerboard="1"
     inkscape:deskcolor="#d1d1d1"
     showgrid="false"
     inkscape:zoom="2.6021111"
     inkscape:cx="74.554849"
     inkscape:cy="94.538623"
     inkscape:window-width="1916"
     inkscape:window-height="1023"
     inkscape:window-x="0"
     inkscape:window-y="0"
     inkscape:window-maximized="1"
     inkscape:current-layer="layer2" />
  <defs
     id="defs2281">
    <style
       id="style2279">.a{fill:#34b0bf;}.b{fill:#0a2c3f;}.c{fill:#d46329;}</style>
  </defs>
  <metadata
     id="metadata2329">
    <rdf:RDF>
      <cc:Work
         rdf:about="">
        <dc:title>Cascade STEAM horizontal logo primary</dc:title>
      </cc:Work>
    </rdf:RDF>
  </metadata>
  <g
     inkscape:groupmode="layer"
     id="layer2"
     inkscape:label="Layer 1"
     style="display:inline"
     transform="translate(-11.094964,-2.3)">
    <path
       class="c"
       d="m 334.8,124.2 c -7.5,-9.6 -7.7,-27.7 -7.7,-39.4 0,-5.9 -3.6,-3.6 -6.9,-0.3 -4.9,4.9 -13.9,29.8 4.6,49.7 5.1,5.5 21.4,14.9 34.8,4.4 2.2,-1.7 -13.8,-0.5 -24.8,-14.4 z"
       id="path2309" />
    <path
       class="c"
       d="m 378.5,121.7 c -11.1,-4.1 -21.8,-17.8 -26.3,-28.7 -2.2,-5.3 -4.8,-1.1 -5.9,3.2 -1.6,6.7 7,32.6 28.9,38.8 7,2 25.2,1.5 31,-13.9 0.9,-2.6 -11.6,6.6 -27.7,0.6 z"
       id="path2311" />
    <path
       class="c"
       d="m 430.8,62.7 c -1.3,-2.4 -2.6,13.1 -17.7,21.4 -10.3,5.6 -26.7,5.5 -38.8,1.1 -5.4,-2 -4,2.9 -1.4,6.5 3.9,5.6 24.5,19.3 48.2,3.6 8.6,-5.7 17.6,-18.2 9.7,-32.6 z"
       id="path2313" />
    <path
       class="a"
       d="m 377.6,41.7 c 3.1,-7.3 2.8,-14.5 -0.7,-16 -3.5,-1.5 -11.3,-0.6 -14.5,6.7 -3.2,7.3 -0.5,18.1 3,19.7 3.5,1.6 9,-3.2 12.2,-10.4 z"
       id="path2315" />
    <path
       class="b"
       d="m 373.2,43.2 c 1,-2.4 2.4,-7 0.9,-7.6 -1.5,-0.6 -4.3,1 -6.3,6.9 -0.8,2.4 -1,4.7 0.2,5.1 1.2,0.4 4.2,-2.1 5.2,-4.4 z"
       id="path2317" />
    <circle
       class="c"
       cx="371.70001"
       cy="16.6"
       r="1.3"
       id="circle2319" />
    <circle
       class="c"
       cx="377.79999"
       cy="20.200001"
       r="1.3"
       id="circle2321" />
    <circle
       class="c"
       cx="377.79999"
       cy="15.3"
       r="1.3"
       id="circle2323" />
    <path
       class="c"
       d="m 325.6,67.8 c 11.3,1.5 25.5,3.3 34.7,-4.9 a 0.9,0.9 0 0 0 -0.9,-1.5 c -8.6,3.3 -13.3,5.5 -28.9,2.2 -6.3,-1.3 0,-21.3 3.5,-27.6 7.1,-12.8 23.7,-27.5 40.6,-27.5 11.7,0 17.2,23.5 12.9,38 -3.4,11.6 -9,16.4 -22.7,24.4 a 0.9,0.9 0 0 0 0.6,1.6 25.5,25.5 0 0 0 11.5,-4 13.5,13.5 0 0 0 4.5,2.2 c 10,3 34.4,-0.3 40.9,-25.8 1.8,-7.1 3.4,-25.1 -11.5,-32 -2.5,-1.1 5.2,11.9 -1.5,27.7 -6.7,15.8 -13.5,20.6 -24.1,20.6 a 52.4,52.4 0 0 0 6.6,-10.6 c 7,-15.1 10.6,-48.3 -14.9,-48.3 -18.8,0 -21.4,7.9 -30.9,7.9 -24.6,0 -31,40.4 -31,48.6 0,4.5 -39.9,-0.9 -39.9,43.7 0,11.5 10.2,35.9 36,35.9 4.3,0 -16.1,-13.5 -16.1,-40.5 0,-18.5 12.9,-32.3 30.6,-30.1 z"
       id="path2307" />
    <text
       xml:space="preserve"
       style="font-style:italic;font-variant:normal;font-weight:bold;font-stretch:normal;font-size:56px;font-family:Rubik;-inkscape-font-specification:'Rubik, Bold Italic';font-variant-ligatures:normal;font-variant-caps:normal;font-variant-numeric:normal;font-variant-east-asian:normal;fill:#34b0bf;fill-opacity:1;stroke-width:0"
       x="22.152985"
       y="57.601681"
       id="text2486"><tspan
         sodipodi:role="line"
         id="tspan2484"
         x="22.152985"
         y="57.601681">Cascade</tspan></text>
    <text
       xml:space="preserve"
       style="font-style:italic;font-variant:normal;font-weight:bold;font-stretch:normal;font-size:70.6667px;font-family:Rubik;-inkscape-font-specification:'Rubik, Bold Italic';font-variant-ligatures:normal;font-variant-caps:normal;font-variant-numeric:normal;font-variant-east-asian:normal;fill:#0a2c3f;fill-opacity:1;stroke-width:0"
       x="10.800183"
       y="126.44597"
       id="text2432"><tspan
         sodipodi:role="line"
         id="tspan2430"
         x="10.800183"
         y="126.44597">STEAM</tspan></text>
  </g>
</svg>
