<svg xmlns="http://www.w3.org/2000/svg" viewBox="0 0 435.8 145.6"><defs><style>.a{fill:#34b0bf;}.b{fill:#0a2c3f;}.c{fill:#d46329;}</style></defs><title>Whatcom_STEM_horizontal_logo_primary</title><path class="a" d="M2.3,57.9a1.6,1.6,0,0,1-.4-1.3L3.1,20.9a1.4,1.4,0,0,1,.5-.9,1.1,1.1,0,0,1,.9-.4h7.1c1,0,1.5.5,1.4,1.4l-.9,20.6,6.3-11.9a2.3,2.3,0,0,1,2.1-1.5h4.1a1.4,1.4,0,0,1,1.6,1.5l1.3,12.1,7.9-20.9a1.5,1.5,0,0,1,.7-1,2.3,2.3,0,0,1,1.3-.3h7.5a.9.9,0,0,1,.7.3.8.8,0,0,1,.2.6,1.1,1.1,0,0,1-.1.5l-13,35.6a4.1,4.1,0,0,1-1,1.3,3,3,0,0,1-1.6.5H24.4a2,2,0,0,1-1.3-.4,1.6,1.6,0,0,1-.5-1L19.8,41.6,11.7,57a2.6,2.6,0,0,1-2.4,1.4H3.7A2.2,2.2,0,0,1,2.3,57.9Z"/><path class="a" d="M44.7,58a1.2,1.2,0,0,1-.2-1l7.7-36.6a1.5,1.5,0,0,1,.6-.9,1.7,1.7,0,0,1,1.1-.4h7.5a1.2,1.2,0,0,1,1,.4,1,1,0,0,1,.2.9L59.9,32.8A15.7,15.7,0,0,1,64,30a12.2,12.2,0,0,1,4.9-1,10,10,0,0,1,6.9,2.4c1.7,1.5,2.5,3.7,2.5,6.7a14.5,14.5,0,0,1-.4,3.5L74.6,57a2.1,2.1,0,0,1-.6,1,1.4,1.4,0,0,1-1,.4H65.4a1,1,0,0,1-.9-.4,1.2,1.2,0,0,1-.2-1l3.2-15.1a11,11,0,0,0,.2-1.8c0-2.2-1.2-3.4-3.6-3.4a6,6,0,0,0-3.9,1.4A6.9,6.9,0,0,0,58,41.9L54.8,57a2.1,2.1,0,0,1-.6,1,1.7,1.7,0,0,1-1.1.4H45.6A1,1,0,0,1,44.7,58Z"/><path class="a" d="M85.7,56.4a9.5,9.5,0,0,1-2.6-7.1,17.2,17.2,0,0,1,.3-3.4l.9-3.9a19.3,19.3,0,0,1,5.2-9.6A13,13,0,0,1,98.7,29a10.5,10.5,0,0,1,4.8.9,8.1,8.1,0,0,1,3,2.5l.3-1.4a1.7,1.7,0,0,1,.6-1,1.5,1.5,0,0,1,1.1-.4H115a1,1,0,0,1,.9.4,1.2,1.2,0,0,1,.3,1l-5.6,26a2.1,2.1,0,0,1-.6,1,1.4,1.4,0,0,1-1,.4h-6.6a1.1,1.1,0,0,1-1.2-1.4l.4-1.7A15.3,15.3,0,0,1,97.7,58a11.6,11.6,0,0,1-4.9.9C89.7,58.9,87.3,58.1,85.7,56.4Zm15.2-6.7a8.3,8.3,0,0,0,2.1-3.8q.6-2.4.9-4.2a7.2,7.2,0,0,0,.1-1.3,4,4,0,0,0-.9-2.7,3.6,3.6,0,0,0-2.8-1,4.7,4.7,0,0,0-3.7,1.5,8.9,8.9,0,0,0-2.2,4.1,15.8,15.8,0,0,0-.7,3.4,13.7,13.7,0,0,0-.2,1.9,4.1,4.1,0,0,0,.8,2.7,3.3,3.3,0,0,0,2.6.9A5.4,5.4,0,0,0,100.9,49.7Z"/><path class="a" d="M123.2,50.6a12.2,12.2,0,0,1,.4-3.2l2.1-10.3h-4.3a1,1,0,0,1-.9-.4,1.2,1.2,0,0,1-.2-1l1-4.7a1.2,1.2,0,0,1,.6-1,1.5,1.5,0,0,1,1.1-.4h4.4l1.9-9.2a1.5,1.5,0,0,1,.6-.9,1.5,1.5,0,0,1,1.1-.4h6.8a1,1,0,0,1,.9.4,1.5,1.5,0,0,1,.2.9l-2,9.2h7a1,1,0,0,1,.9.4,1.5,1.5,0,0,1,.2,1l-1,4.7a1.7,1.7,0,0,1-.6,1,1.7,1.7,0,0,1-1.1.4h-7l-2,9.4a13.7,13.7,0,0,0-.2,1.9,2.5,2.5,0,0,0,.5,1.6,3,3,0,0,0,1.8.5h4.5a1,1,0,0,1,.9.4,1.2,1.2,0,0,1,.2,1L139.9,57a1.2,1.2,0,0,1-.6,1,1.4,1.4,0,0,1-1,.4h-4.7C126.7,58.4,123.2,55.8,123.2,50.6Z"/><path class="a" d="M152.8,57.7a9.8,9.8,0,0,1-4.4-3.6,9.5,9.5,0,0,1-1.6-5.6,16.4,16.4,0,0,1,.2-2.2l.9-4.5a17.2,17.2,0,0,1,5.9-9.4A16.8,16.8,0,0,1,164.6,29a15.8,15.8,0,0,1,7.3,1.6,10.8,10.8,0,0,1,4.3,3.8,8.4,8.4,0,0,1,1.4,4.2v.6a1.4,1.4,0,0,1-.5,1,1.5,1.5,0,0,1-1.1.4h-7.5a1.2,1.2,0,0,1-1.3-1.1,2.9,2.9,0,0,0-.9-2.3,3.6,3.6,0,0,0-2.4-.8c-2.9,0-4.8,1.9-5.8,5.7-.4,1.9-.7,3.3-.8,3.9s-.2,1.7-.2,2a3.8,3.8,0,0,0,.8,2.7,3.4,3.4,0,0,0,2.6.9,5.7,5.7,0,0,0,2.7-.7,6.7,6.7,0,0,0,2.1-2.3,2.2,2.2,0,0,1,.7-.9,1.7,1.7,0,0,1,1-.3h7.5a1.8,1.8,0,0,1,1,.4,1.4,1.4,0,0,1,.1,1.1,15.6,15.6,0,0,1-2.4,4.2,16.5,16.5,0,0,1-5.3,4.1,19.3,19.3,0,0,1-8.7,1.7A16.1,16.1,0,0,1,152.8,57.7Z"/><path class="a" d="M184.4,56.3a9,9,0,0,1-3.4-7.5,17.9,17.9,0,0,1,.2-2.3,29.5,29.5,0,0,1,1-5,17.3,17.3,0,0,1,5.9-9.3c2.8-2.1,6.5-3.2,11.1-3.2s7.1.9,9.4,2.8a9.1,9.1,0,0,1,3.5,7.6,14.9,14.9,0,0,1-.2,2.1c-.4,2-.8,3.7-1.1,5a17.7,17.7,0,0,1-5.8,9.3c-2.7,2.1-6.5,3.1-11.2,3.1S186.6,58.1,184.4,56.3Zm14.1-5.7a10.1,10.1,0,0,0,2.2-4.4,26.3,26.3,0,0,0,.9-4.4,18.3,18.3,0,0,0,.2-2.1,4.4,4.4,0,0,0-.8-2.8,3.7,3.7,0,0,0-2.7-.9,5.2,5.2,0,0,0-3.8,1.5,9.6,9.6,0,0,0-2.1,4.3c-.2.6-.4,1.4-.6,2.2a20.7,20.7,0,0,0-.4,2.2,11.3,11.3,0,0,0-.2,2.2,3.6,3.6,0,0,0,.8,2.7,3.5,3.5,0,0,0,2.7.9A5.6,5.6,0,0,0,198.5,50.6Z"/><path class="a" d="M215.5,58a1.2,1.2,0,0,1-.2-1l5.5-26a2.1,2.1,0,0,1,.6-1,1.5,1.5,0,0,1,1.1-.4h6.4a1.1,1.1,0,0,1,1,.4,1.6,1.6,0,0,1,.2,1l-.4,1.9a13,13,0,0,1,3.6-2.8A9.6,9.6,0,0,1,238,29a9.7,9.7,0,0,1,5.2,1.3,6.1,6.1,0,0,1,2.8,3.5,14.7,14.7,0,0,1,4.1-3.5,10.8,10.8,0,0,1,5.2-1.3,8.4,8.4,0,0,1,6.2,2.2q2.4,2.1,2.4,6.3a19.6,19.6,0,0,1-.4,3.8L260.1,57a1.2,1.2,0,0,1-.6,1,1.4,1.4,0,0,1-1,.4h-6.8a1.1,1.1,0,0,1-1.2-1.4l3.3-15.3a13.7,13.7,0,0,0,.2-1.9c0-2-1-3.1-3-3.1a4.7,4.7,0,0,0-3.2,1.3,6.2,6.2,0,0,0-1.9,3.7L242.6,57a1.2,1.2,0,0,1-.6,1,1.4,1.4,0,0,1-1,.4h-6.8a1.1,1.1,0,0,1-1-.4,1.2,1.2,0,0,1-.2-1l3.3-15.3a11.1,11.1,0,0,0,.2-1.9c0-2-1-3.1-3-3.1a4.9,4.9,0,0,0-3.2,1.2,6.9,6.9,0,0,0-2,3.7L225.1,57a2.1,2.1,0,0,1-.6,1,1.7,1.7,0,0,1-1.1.4h-7A1,1,0,0,1,215.5,58Z"/><path class="b" d="M66.3,124.9a14.6,14.6,0,0,1-6.5-4.4,9.6,9.6,0,0,1-2.2-6.2,11,11,0,0,1,.1-1.6,1.1,1.1,0,0,1,.6-1,1.6,1.6,0,0,1,1.1-.5h9.2a2.6,2.6,0,0,1,1.4.3,3,3,0,0,1,.9,1,5.2,5.2,0,0,0,2.2,2.7,8.8,8.8,0,0,0,4.7,1.1,13.4,13.4,0,0,0,6-1.2,5,5,0,0,0,2.8-3.1v-.8a2.9,2.9,0,0,0-2.1-2.6,38.3,38.3,0,0,0-7.7-2.2c-9.1-1.9-13.7-5.9-13.7-12.1a19.7,19.7,0,0,1,.4-3.4,15.4,15.4,0,0,1,6.9-10.1c3.7-2.5,8.5-3.7,14.3-3.7A22.7,22.7,0,0,1,94,78.9a18.4,18.4,0,0,1,6.5,4.8,9.3,9.3,0,0,1,2.3,5.7c0,.2-.1.6-.2,1.2a1.9,1.9,0,0,1-.5,1,1.4,1.4,0,0,1-1,.5H91.3a2.1,2.1,0,0,1-2.1-1.3,3.4,3.4,0,0,0-1.6-2.4,6.7,6.7,0,0,0-3.9-1,9.4,9.4,0,0,0-4.7,1,4.3,4.3,0,0,0-2.3,3.1c-.1.1-.1.4-.1.7a3,3,0,0,0,1.9,2.7,32.8,32.8,0,0,0,6.7,2c5.2.9,9,2.4,11.4,4.3a9.3,9.3,0,0,1,3.6,7.6,16.7,16.7,0,0,1-.4,3.4,16,16,0,0,1-7.4,10.7c-3.9,2.5-9.1,3.7-15.7,3.7A29,29,0,0,1,66.3,124.9Z"/><path class="b" d="M116.8,125.4a1.2,1.2,0,0,1-.3-1.2L124,89H111.9a1.7,1.7,0,0,1-1.2-.5,1.6,1.6,0,0,1-.2-1.2l1.6-7.7a2.2,2.2,0,0,1,.8-1.3,1.7,1.7,0,0,1,1.4-.5h37.3c.5,0,.9.1,1.1.5a1.4,1.4,0,0,1,.3,1.3l-1.7,7.7a1.9,1.9,0,0,1-.7,1.2,2.4,2.4,0,0,1-1.4.5H137.1l-7.5,35.2a2.1,2.1,0,0,1-2.1,1.7H118A1.7,1.7,0,0,1,116.8,125.4Z"/><path class="b" d="M152.6,125.4a1.2,1.2,0,0,1-.3-1.2l9.5-44.6a2.2,2.2,0,0,1,.8-1.3,1.7,1.7,0,0,1,1.3-.5h32.5c.5,0,.9.1,1.1.5a1.8,1.8,0,0,1,.3,1.3l-1.5,6.8a1.9,1.9,0,0,1-.7,1.2,2.7,2.7,0,0,1-1.4.5H172.5l-2,8.7h20.3a1.7,1.7,0,0,1,1.2.5,1.9,1.9,0,0,1,.2,1.3l-1.3,6.3a2,2,0,0,1-.8,1.2,1.7,1.7,0,0,1-1.3.5H168.5l-1.9,9h22.3c.5,0,.9.1,1.1.5a1.4,1.4,0,0,1,.3,1.3l-1.5,6.8a1.9,1.9,0,0,1-.7,1.2,2.4,2.4,0,0,1-1.3.5h-33A1.7,1.7,0,0,1,152.6,125.4Z"/><path class="b" d="M199.5,125.4a1.6,1.6,0,0,1-.2-1.2l9.5-44.6a1.7,1.7,0,0,1,.7-1.3,1.9,1.9,0,0,1,1.4-.5h7.8a2.2,2.2,0,0,1,1.5.4,4.1,4.1,0,0,1,.7,1.1l7.4,21.2,16.3-21.2a3.6,3.6,0,0,1,1.1-1,2.2,2.2,0,0,1,1.6-.5h7.8a1.2,1.2,0,0,1,1.2.5,1.4,1.4,0,0,1,.3,1.3L247,124.2a1.9,1.9,0,0,1-.7,1.2,2.1,2.1,0,0,1-1.3.5h-8.8a1.4,1.4,0,0,1-1.1-.5,1.4,1.4,0,0,1-.3-1.2L240,99.6l-10,13.2a3.8,3.8,0,0,1-2.8,1.5h-3.7a2.1,2.1,0,0,1-2-1.5l-4.6-13.9-5.4,25.3a1.6,1.6,0,0,1-.8,1.2,2.1,2.1,0,0,1-1.3.5h-8.7A1.7,1.7,0,0,1,199.5,125.4Z"/><path class="c" d="M325.6,67.8c11.3,1.5,25.5,3.3,34.7-4.9a.9.9,0,0,0-.9-1.5c-8.6,3.3-13.3,5.5-28.9,2.2-6.3-1.3,0-21.3,3.5-27.6,7.1-12.8,23.7-27.5,40.6-27.5,11.7,0,17.2,23.5,12.9,38-3.4,11.6-9,16.4-22.7,24.4a.9.9,0,0,0,.6,1.6,25.5,25.5,0,0,0,11.5-4,13.5,13.5,0,0,0,4.5,2.2c10,3,34.4-.3,40.9-25.8,1.8-7.1,3.4-25.1-11.5-32-2.5-1.1,5.2,11.9-1.5,27.7s-13.5,20.6-24.1,20.6a52.4,52.4,0,0,0,6.6-10.6c7-15.1,10.6-48.3-14.9-48.3-18.8,0-21.4,7.9-30.9,7.9-24.6,0-31,40.4-31,48.6,0,4.5-39.9-.9-39.9,43.7,0,11.5,10.2,35.9,36,35.9,4.3,0-16.1-13.5-16.1-40.5C295,79.4,307.9,65.6,325.6,67.8Z"/><path class="c" d="M334.8,124.2c-7.5-9.6-7.7-27.7-7.7-39.4,0-5.9-3.6-3.6-6.9-.3-4.9,4.9-13.9,29.8,4.6,49.7,5.1,5.5,21.4,14.9,34.8,4.4C361.8,136.9,345.8,138.1,334.8,124.2Z"/><path class="c" d="M378.5,121.7c-11.1-4.1-21.8-17.8-26.3-28.7-2.2-5.3-4.8-1.1-5.9,3.2-1.6,6.7,7,32.6,28.9,38.8,7,2,25.2,1.5,31-13.9C407.1,118.5,394.6,127.7,378.5,121.7Z"/><path class="c" d="M430.8,62.7c-1.3-2.4-2.6,13.1-17.7,21.4-10.3,5.6-26.7,5.5-38.8,1.1-5.4-2-4,2.9-1.4,6.5,3.9,5.6,24.5,19.3,48.2,3.6C429.7,89.6,438.7,77.1,430.8,62.7Z"/><path class="a" d="M377.6,41.7c3.1-7.3,2.8-14.5-.7-16s-11.3-.6-14.5,6.7-.5,18.1,3,19.7S374.4,48.9,377.6,41.7Z"/><path class="b" d="M373.2,43.2c1-2.4,2.4-7,.9-7.6s-4.3,1-6.3,6.9c-.8,2.4-1,4.7.2,5.1S372.2,45.5,373.2,43.2Z"/><circle class="c" cx="371.7" cy="16.6" r="1.3"/><circle class="c" cx="377.8" cy="20.2" r="1.3"/><circle class="c" cx="377.8" cy="15.3" r="1.3"/></svg>